<svg width="25" height="25" viewBox="0 0 25 25" fill="none" xmlns="http://www.w3.org/2000/svg">
<g clip-path="url(#clip0_342_776)">
<path d="M12.5 0C5.59658 0 0 5.59658 0 12.5C0 19.4034 5.59658 25 12.5 25C19.4034 25 25 19.4034 25 12.5C25 5.59658 19.4034 0 12.5 0ZM12.5 22.9167C6.74717 22.9167 2.08335 18.2528 2.08335 12.5C2.08335 6.74717 6.74717 2.08335 12.5 2.08335C18.2528 2.08335 22.9167 6.74717 22.9167 12.5C22.9167 18.2528 18.2528 22.9167 12.5 22.9167Z" fill="black"/>
<path d="M11.1532 6.55509C10.7464 6.1483 10.0869 6.1483 9.68009 6.55509C9.2733 6.96188 9.2733 7.62145 9.68009 8.02823L14.1519 12.5L9.68009 16.9718C9.2733 17.3786 9.2733 18.0381 9.68009 18.4449C10.0869 18.8517 10.7464 18.8517 11.1532 18.4449L16.3616 13.2366C16.7684 12.8298 16.7684 12.1702 16.3616 11.7634L11.1532 6.55509Z" fill="black"/>
</g>
<defs>
<clipPath id="clip0_342_776">
<rect width="25" height="25" fill="white"/>
</clipPath>
</defs>
</svg>
