<svg width="28" height="28" viewBox="0 0 28 28" fill="none" xmlns="http://www.w3.org/2000/svg">
<path d="M14 0C6.26817 0 0 6.26817 0 14C0 21.7318 6.26817 28 14 28C21.7318 28 28 21.7318 28 14C28 6.26817 21.7318 0 14 0ZM14 25.6666C7.55683 25.6666 2.33335 20.4432 2.33335 14C2.33335 7.55683 7.55683 2.33335 14 2.33335C20.4432 2.33335 25.6666 7.55683 25.6666 14C25.6666 20.4432 20.4432 25.6666 14 25.6666Z" fill="white"/>
<path d="M12.4916 7.34169C12.036 6.88608 11.2973 6.88608 10.8417 7.34169C10.3861 7.79729 10.3861 8.53601 10.8417 8.99161L15.8501 14L10.8417 19.0084C10.3861 19.464 10.3861 20.2027 10.8417 20.6583C11.2973 21.1139 12.036 21.1139 12.4916 20.6583L18.325 14.825C18.7806 14.3694 18.7806 13.6306 18.325 13.175L12.4916 7.34169Z" fill="white"/>
</svg>
