<svg width="28" height="29" viewBox="0 0 28 29" fill="none" xmlns="http://www.w3.org/2000/svg">
<g clip-path="url(#clip0_342_658)">
<path d="M14 0.5C6.26817 0.5 0 6.76817 0 14.5C0 22.2318 6.26817 28.5 14 28.5C21.7318 28.5 28 22.2318 28 14.5C28 6.76817 21.7318 0.5 14 0.5ZM14 26.1666C7.55683 26.1666 2.33335 20.9432 2.33335 14.5C2.33335 8.05683 7.55683 2.83335 14 2.83335C20.4432 2.83335 25.6666 8.05683 25.6666 14.5C25.6666 20.9432 20.4432 26.1666 14 26.1666Z" fill="black"/>
<path d="M12.4916 7.8417C12.036 7.3861 11.2973 7.3861 10.8417 7.8417C10.3861 8.2973 10.3861 9.03602 10.8417 9.49162L15.8501 14.5L10.8417 19.5084C10.3861 19.964 10.3861 20.7027 10.8417 21.1583C11.2973 21.6139 12.036 21.6139 12.4916 21.1583L18.325 15.325C18.7806 14.8694 18.7806 14.1307 18.325 13.6751L12.4916 7.8417Z" fill="black"/>
</g>
<defs>
<clipPath id="clip0_342_658">
<rect width="28" height="28" fill="white" transform="translate(0 0.5)"/>
</clipPath>
</defs>
</svg>
