<svg width="17" height="14" viewBox="0 0 17 14" fill="none" xmlns="http://www.w3.org/2000/svg">
<path d="M8.1135 0C12.1575 0 15.522 2.91 16.2278 6.75C15.5228 10.59 12.1575 13.5 8.1135 13.5C4.0695 13.5 0.705 10.59 0 6.75C0.705 2.91 4.0695 0 8.1135 0ZM8.1135 12C9.64323 11.9998 11.1276 11.4804 12.3236 10.5266C13.5196 9.57286 14.3564 8.24133 14.697 6.75C14.3555 5.25961 13.5183 3.92922 12.3225 2.97641C11.1267 2.02359 9.64289 1.50476 8.11387 1.50476C6.58486 1.50476 5.10109 2.02359 3.90525 2.97641C2.70941 3.92922 1.87227 5.25961 1.53075 6.75C1.87132 8.24121 2.70801 9.57264 3.90386 10.5264C5.09971 11.4801 6.5839 11.9997 8.1135 12ZM8.1135 10.125C7.21839 10.125 6.35995 9.76942 5.72701 9.13649C5.09408 8.50355 4.7385 7.64511 4.7385 6.75C4.7385 5.85489 5.09408 4.99645 5.72701 4.36351C6.35995 3.73058 7.21839 3.375 8.1135 3.375C9.00861 3.375 9.86705 3.73058 10.5 4.36351C11.1329 4.99645 11.4885 5.85489 11.4885 6.75C11.4885 7.64511 11.1329 8.50355 10.5 9.13649C9.86705 9.76942 9.00861 10.125 8.1135 10.125ZM8.1135 8.625C8.61078 8.625 9.08769 8.42746 9.43933 8.07582C9.79096 7.72419 9.9885 7.24728 9.9885 6.75C9.9885 6.25272 9.79096 5.77581 9.43933 5.42417C9.08769 5.07254 8.61078 4.875 8.1135 4.875C7.61622 4.875 7.13931 5.07254 6.78767 5.42417C6.43604 5.77581 6.2385 6.25272 6.2385 6.75C6.2385 7.24728 6.43604 7.72419 6.78767 8.07582C7.13931 8.42746 7.61622 8.625 8.1135 8.625Z" fill="black"/>
</svg>
