<svg width="14" height="22" viewBox="0 0 14 22" fill="none" xmlns="http://www.w3.org/2000/svg">
<path d="M12.315 0.655562C11.3062 0.548586 10.2924 0.49651 9.278 0.499562C5.915 0.499562 3.825 2.64156 3.825 6.08956V8.43056H1C0.867392 8.43056 0.740214 8.48324 0.646446 8.57701C0.552678 8.67078 0.5 8.79795 0.5 8.93056V12.7806C0.5 12.9132 0.552678 13.0403 0.646446 13.1341C0.740214 13.2279 0.867392 13.2806 1 13.2806H3.825V21.0006C3.825 21.1332 3.87768 21.2603 3.97145 21.3541C4.06521 21.4479 4.19239 21.5006 4.325 21.5006H8.303C8.43561 21.5006 8.56279 21.4479 8.65655 21.3541C8.75032 21.2603 8.803 21.1332 8.803 21.0006V13.2806H11.619C11.7404 13.2806 11.8577 13.2365 11.9489 13.1565C12.0402 13.0764 12.0992 12.9659 12.115 12.8456L12.612 8.99556C12.6213 8.92499 12.6153 8.85327 12.5946 8.78517C12.5739 8.71708 12.5389 8.65418 12.492 8.6007C12.445 8.54721 12.3872 8.50437 12.3224 8.47503C12.2575 8.44569 12.1872 8.43053 12.116 8.43056H8.803V6.47156C8.803 5.50156 8.998 5.09656 10.211 5.09656H12.25C12.3826 5.09656 12.5098 5.04388 12.6036 4.95012C12.6973 4.85635 12.75 4.72917 12.75 4.59656V1.15156C12.7501 1.03017 12.706 0.912903 12.6259 0.821638C12.5459 0.730372 12.4354 0.671343 12.315 0.655562ZM11.75 4.09556L10.21 4.09656C8.053 4.09656 7.803 5.45256 7.803 6.47156V8.93156C7.803 9.064 7.85554 9.19102 7.94909 9.28476C8.04264 9.3785 8.16957 9.4313 8.302 9.43156H11.548L11.179 12.2816H8.303C8.17039 12.2816 8.04321 12.3342 7.94945 12.428C7.85568 12.5218 7.803 12.649 7.803 12.7816V20.4996H4.825V12.7816C4.825 12.649 4.77232 12.5218 4.67855 12.428C4.58479 12.3342 4.45761 12.2816 4.325 12.2816H1.501V9.43156H4.325C4.45761 9.43156 4.58479 9.37888 4.67855 9.28512C4.77232 9.19135 4.825 9.06417 4.825 8.93156V6.08956C4.825 3.21556 6.49 1.49956 9.278 1.49956C10.287 1.49956 11.198 1.55456 11.75 1.60256V4.09556Z" stroke="black"/>
</svg>
