<svg width="26" height="26" viewBox="0 0 26 26" fill="none" xmlns="http://www.w3.org/2000/svg">
<path d="M8.87467 2.58333H17.6247C20.958 2.58333 23.6663 5.29166 23.6663 8.62499V17.375C23.6663 18.9773 23.0298 20.5141 21.8968 21.6471C20.7637 22.7801 19.227 23.4167 17.6247 23.4167H8.87467C5.54134 23.4167 2.83301 20.7083 2.83301 17.375V8.62499C2.83301 7.02265 3.46954 5.48592 4.60257 4.35289C5.7356 3.21986 7.27233 2.58333 8.87467 2.58333ZM8.66634 4.66666C7.67178 4.66666 6.71795 5.06175 6.01469 5.76501C5.31143 6.46827 4.91634 7.4221 4.91634 8.41666V17.5833C4.91634 19.6562 6.59342 21.3333 8.66634 21.3333H17.833C18.8276 21.3333 19.7814 20.9382 20.4847 20.235C21.1879 19.5317 21.583 18.5779 21.583 17.5833V8.41666C21.583 6.34374 19.9059 4.66666 17.833 4.66666H8.66634ZM18.7184 6.22916C19.0638 6.22916 19.3949 6.36634 19.6391 6.61053C19.8833 6.85472 20.0205 7.18591 20.0205 7.53124C20.0205 7.87658 19.8833 8.20777 19.6391 8.45196C19.3949 8.69614 19.0638 8.83333 18.7184 8.83333C18.3731 8.83333 18.0419 8.69614 17.7977 8.45196C17.5535 8.20777 17.4163 7.87658 17.4163 7.53124C17.4163 7.18591 17.5535 6.85472 17.7977 6.61053C18.0419 6.36634 18.3731 6.22916 18.7184 6.22916ZM13.2497 7.79166C14.631 7.79166 15.9558 8.34039 16.9325 9.31715C17.9093 10.2939 18.458 11.6187 18.458 13C18.458 14.3813 17.9093 15.7061 16.9325 16.6828C15.9558 17.6596 14.631 18.2083 13.2497 18.2083C11.8683 18.2083 10.5436 17.6596 9.56683 16.6828C8.59007 15.7061 8.04134 14.3813 8.04134 13C8.04134 11.6187 8.59007 10.2939 9.56683 9.31715C10.5436 8.34039 11.8683 7.79166 13.2497 7.79166ZM13.2497 9.87499C12.4209 9.87499 11.626 10.2042 11.04 10.7903C10.4539 11.3763 10.1247 12.1712 10.1247 13C10.1247 13.8288 10.4539 14.6237 11.04 15.2097C11.626 15.7958 12.4209 16.125 13.2497 16.125C14.0785 16.125 14.8733 15.7958 15.4594 15.2097C16.0454 14.6237 16.3747 13.8288 16.3747 13C16.3747 12.1712 16.0454 11.3763 15.4594 10.7903C14.8733 10.2042 14.0785 9.87499 13.2497 9.87499Z" fill="black"/>
</svg>
