<svg width="21" height="20" viewBox="0 0 21 20" fill="none" xmlns="http://www.w3.org/2000/svg">
<g clip-path="url(#clip0_647_981)">
<path d="M9.91699 7.74999C8.74201 7.39968 7.48652 7.42851 6.32885 7.83238C5.17119 8.23625 4.17021 8.99462 3.46811 9.99978C2.766 11.0049 2.39847 12.2058 2.41771 13.4317C2.43695 14.6577 2.84199 15.8464 3.5753 16.829C4.3086 17.8116 5.33289 18.5382 6.50266 18.9055C7.67243 19.2729 8.9282 19.2623 10.0916 18.8753C11.255 18.4883 12.2669 17.7445 12.9835 16.7496C13.7002 15.7548 14.0851 14.5594 14.0837 13.3333V7.49999C15.1948 8.61111 16.8614 9.16666 19.0837 9.16666V4.99999C16.8614 4.99999 15.1948 3.61111 14.0837 0.833328H9.91699V13.3333M9.91699 13.3333C9.91699 13.0037 9.81924 12.6815 9.6361 12.4074C9.45297 12.1333 9.19267 11.9197 8.88813 11.7935C8.58358 11.6674 8.24847 11.6344 7.92517 11.6987C7.60187 11.763 7.3049 11.9217 7.07181 12.1548C6.83872 12.3879 6.67999 12.6849 6.61568 13.0082C6.55137 13.3315 6.58438 13.6666 6.71052 13.9711C6.83667 14.2757 7.05029 14.536 7.32437 14.7191C7.59845 14.9022 7.92069 15 8.25032 15C8.69235 15 9.11627 14.8244 9.42883 14.5118C9.74139 14.1993 9.91699 13.7754 9.91699 13.3333Z" stroke="black" stroke-width="2" stroke-linecap="round" stroke-linejoin="round"/>
</g>
<defs>
<clipPath id="clip0_647_981">
<rect width="20" height="20" fill="white" transform="translate(0.75)"/>
</clipPath>
</defs>
</svg>
