<svg width="14" height="22" viewBox="0 0 14 22" fill="none" xmlns="http://www.w3.org/2000/svg">
<path d="M12.442 0.655562C11.4332 0.548586 10.4194 0.49651 9.40495 0.499562C6.04195 0.499562 3.95195 2.64156 3.95195 6.08956V8.43056H1.12695C0.994345 8.43056 0.867168 8.48324 0.773399 8.57701C0.679631 8.67078 0.626953 8.79795 0.626953 8.93056V12.7806C0.626953 12.9132 0.679631 13.0403 0.773399 13.1341C0.867168 13.2279 0.994345 13.2806 1.12695 13.2806H3.95195V21.0006C3.95195 21.1332 4.00463 21.2603 4.0984 21.3541C4.19217 21.4479 4.31934 21.5006 4.45195 21.5006H8.42995C8.56256 21.5006 8.68974 21.4479 8.78351 21.3541C8.87727 21.2603 8.92995 21.1332 8.92995 21.0006V13.2806H11.746C11.8673 13.2806 11.9846 13.2365 12.0759 13.1565C12.1671 13.0764 12.2262 12.9659 12.242 12.8456L12.739 8.99556C12.7482 8.92499 12.7423 8.85327 12.7216 8.78517C12.7009 8.71708 12.6659 8.65418 12.6189 8.6007C12.572 8.54721 12.5142 8.50437 12.4493 8.47503C12.3845 8.44569 12.3141 8.43053 12.243 8.43056H8.92995V6.47156C8.92995 5.50156 9.12495 5.09656 10.338 5.09656H12.377C12.5096 5.09656 12.6367 5.04388 12.7305 4.95012C12.8243 4.85635 12.877 4.72917 12.877 4.59656V1.15156C12.877 1.03017 12.8329 0.912903 12.7529 0.821638C12.6728 0.730372 12.5623 0.671343 12.442 0.655562ZM11.877 4.09556L10.337 4.09656C8.17995 4.09656 7.92995 5.45256 7.92995 6.47156V8.93156C7.92995 9.064 7.98249 9.19102 8.07605 9.28476C8.1696 9.3785 8.29652 9.4313 8.42895 9.43156H11.675L11.306 12.2816H8.42995C8.29734 12.2816 8.17017 12.3342 8.0764 12.428C7.98263 12.5218 7.92995 12.649 7.92995 12.7816V20.4996H4.95195V12.7816C4.95195 12.649 4.89927 12.5218 4.80551 12.428C4.71174 12.3342 4.58456 12.2816 4.45195 12.2816H1.62795V9.43156H4.45195C4.58456 9.43156 4.71174 9.37888 4.80551 9.28512C4.89927 9.19135 4.95195 9.06417 4.95195 8.93156V6.08956C4.95195 3.21556 6.61695 1.49956 9.40495 1.49956C10.414 1.49956 11.325 1.55456 11.877 1.60256V4.09556Z" stroke="white" stroke-opacity="0.8"/>
</svg>
