<svg width="26" height="26" viewBox="0 0 26 26" fill="none" xmlns="http://www.w3.org/2000/svg">
<path d="M9.00163 2.58334H17.7516C21.085 2.58334 23.7933 5.29167 23.7933 8.625V17.375C23.7933 18.9774 23.1568 20.5141 22.0237 21.6471C20.8907 22.7801 19.354 23.4167 17.7516 23.4167H9.00163C5.66829 23.4167 2.95996 20.7083 2.95996 17.375V8.625C2.95996 7.02265 3.59649 5.48593 4.72952 4.3529C5.86256 3.21987 7.39928 2.58334 9.00163 2.58334ZM8.79329 4.66667C7.79873 4.66667 6.84491 5.06176 6.14164 5.76502C5.43838 6.46828 5.04329 7.42211 5.04329 8.41667V17.5833C5.04329 19.6563 6.72038 21.3333 8.79329 21.3333H17.96C18.9545 21.3333 19.9083 20.9382 20.6116 20.235C21.3149 19.5317 21.71 18.5779 21.71 17.5833V8.41667C21.71 6.34375 20.0329 4.66667 17.96 4.66667H8.79329ZM18.8454 6.22917C19.1907 6.22917 19.5219 6.36635 19.7661 6.61054C20.0103 6.85473 20.1475 7.18592 20.1475 7.53125C20.1475 7.87659 20.0103 8.20778 19.7661 8.45196C19.5219 8.69615 19.1907 8.83334 18.8454 8.83334C18.5 8.83334 18.1689 8.69615 17.9247 8.45196C17.6805 8.20778 17.5433 7.87659 17.5433 7.53125C17.5433 7.18592 17.6805 6.85473 17.9247 6.61054C18.1689 6.36635 18.5 6.22917 18.8454 6.22917ZM13.3766 7.79167C14.758 7.79167 16.0827 8.3404 17.0595 9.31715C18.0362 10.2939 18.585 11.6187 18.585 13C18.585 14.3813 18.0362 15.7061 17.0595 16.6828C16.0827 17.6596 14.758 18.2083 13.3766 18.2083C11.9953 18.2083 10.6705 17.6596 9.69378 16.6828C8.71703 15.7061 8.16829 14.3813 8.16829 13C8.16829 11.6187 8.71703 10.2939 9.69378 9.31715C10.6705 8.3404 11.9953 7.79167 13.3766 7.79167ZM13.3766 9.875C12.5478 9.875 11.753 10.2042 11.1669 10.7903C10.5809 11.3763 10.2516 12.1712 10.2516 13C10.2516 13.8288 10.5809 14.6237 11.1669 15.2097C11.753 15.7958 12.5478 16.125 13.3766 16.125C14.2054 16.125 15.0003 15.7958 15.5863 15.2097C16.1724 14.6237 16.5016 13.8288 16.5016 13C16.5016 12.1712 16.1724 11.3763 15.5863 10.7903C15.0003 10.2042 14.2054 9.875 13.3766 9.875Z" fill="white" fill-opacity="0.8"/>
</svg>
