<svg width="25" height="28" viewBox="0 0 25 28" fill="none" xmlns="http://www.w3.org/2000/svg">
<path d="M12.125 11.4814C12.5846 11.4814 13.0398 11.3909 13.4644 11.215C13.889 11.0391 14.2749 10.7813 14.5999 10.4563C14.9249 10.1313 15.1827 9.74548 15.3586 9.32084C15.5345 8.8962 15.625 8.44107 15.625 7.98145C15.625 7.52182 15.5345 7.06669 15.3586 6.64205C15.1827 6.21741 14.9249 5.83158 14.5999 5.50657C14.2749 5.18157 13.889 4.92376 13.4644 4.74787C13.0398 4.57198 12.5846 4.48145 12.125 4.48145C11.1967 4.48145 10.3065 4.85019 9.65013 5.50657C8.99375 6.16295 8.625 7.05319 8.625 7.98145C8.625 8.9097 8.99375 9.79994 9.65013 10.4563C10.3065 11.1127 11.1967 11.4814 12.125 11.4814ZM3.125 21.8814V22.4814H21.125V21.8814C21.125 19.6414 21.125 18.5214 20.689 17.6654C20.3055 16.9128 19.6936 16.3009 18.941 15.9174C18.085 15.4814 16.965 15.4814 14.725 15.4814H9.525C7.285 15.4814 6.165 15.4814 5.309 15.9174C4.55639 16.3009 3.94449 16.9128 3.561 17.6654C3.125 18.5214 3.125 19.6414 3.125 21.8814Z" stroke="white" stroke-width="2" stroke-linecap="round" stroke-linejoin="round"/>
</svg>
