<svg width="22" height="22" viewBox="0 0 22 22" fill="none" xmlns="http://www.w3.org/2000/svg">
<path d="M19.7479 5.63124C17.3643 5.19017 15.608 3.42589 15.4826 1.3308V1H11.5936V14.7834C11.5936 16.4375 10.0882 17.6504 8.33192 17.6504C7.32832 17.6504 6.32472 17.2093 5.69747 16.5477C4.44297 15.2245 4.69387 13.35 6.19927 12.3576C6.95197 11.9165 7.57922 11.9165 8.45737 11.9165V8.38792C4.44297 7.94685 1.55761 10.3727 0.930357 13.791C0.679457 15.7758 1.30671 17.6504 2.93756 19.0839C5.69747 21.62 10.3391 21.62 13.2245 19.1941C14.6044 17.9812 15.3571 16.3272 15.3571 14.6732V7.72632C16.988 8.71873 18.8697 9.27006 20.877 9.27006V5.7415C20.5006 5.7415 20.1243 5.7415 19.7479 5.63124Z" stroke="white" stroke-opacity="0.8" stroke-width="1.5" stroke-miterlimit="10" stroke-linecap="round" stroke-linejoin="round"/>
</svg>
